<svg width="16" height="16" viewBox="0 0 16 16" fill="none" xmlns="http://www.w3.org/2000/svg">
<path fill-rule="evenodd" clip-rule="evenodd" d="M11.052 1.88395C11.052 1.57994 10.8055 1.3335 10.5015 1.3335C10.1975 1.3335 9.95107 1.57994 9.95107 1.88395V2.55674H6.15902V1.88395C6.15902 1.57994 5.91257 1.3335 5.60856 1.3335C5.30455 1.3335 5.0581 1.57994 5.0581 1.88395V2.55674H3.7737C2.79411 2.55674 2 3.35085 2 4.33044V6.77692V12.8931C2 13.8727 2.79411 14.6668 3.7737 14.6668H12.3364C13.316 14.6668 14.1101 13.8727 14.1101 12.8931V6.77692V4.33044C14.1101 3.35085 13.316 2.55674 12.3364 2.55674H11.052V1.88395ZM13.0092 6.22646V4.33044C13.0092 3.95887 12.708 3.65765 12.3364 3.65765H11.052V4.33044C11.052 4.63445 10.8055 4.8809 10.5015 4.8809C10.1975 4.8809 9.95107 4.63445 9.95107 4.33044V3.65765H6.15902V4.33044C6.15902 4.63445 5.91257 4.8809 5.60856 4.8809C5.30455 4.8809 5.0581 4.63445 5.0581 4.33044V3.65765H3.7737C3.40213 3.65765 3.10092 3.95887 3.10092 4.33044V6.22646H13.0092ZM3.10092 7.32738H13.0092V12.8931C13.0092 13.2647 12.708 13.5659 12.3364 13.5659H3.7737C3.40213 13.5659 3.10092 13.2647 3.10092 12.8931V7.32738Z" fill="#6F7374"/>
</svg>
