<svg width="24" height="24" viewBox="0 0 24 24" fill="none" xmlns="http://www.w3.org/2000/svg">
<path d="M18.25 2C19.283 2 20.1662 2.36675 20.8997 3.10026C21.6332 3.83377 22 4.71701 22 5.75V18.25C22 19.283 21.6332 20.1662 20.8997 20.8997C20.1662 21.6332 19.283 22 18.25 22H15.8021V14.2526H18.3932L18.7839 11.2318H15.8021V9.30469C15.8021 8.81858 15.9041 8.45399 16.1081 8.21094C16.3121 7.96788 16.7092 7.84635 17.2995 7.84635L18.888 7.83333V5.13802C18.3411 5.0599 17.5686 5.02083 16.5703 5.02083C15.3898 5.02083 14.4457 5.36806 13.7383 6.0625C13.0308 6.75694 12.6771 7.73785 12.6771 9.00521V11.2318H10.0729V14.2526H12.6771V22H5.75C4.71701 22 3.83377 21.6332 3.10026 20.8997C2.36675 20.1662 2 19.283 2 18.25V5.75C2 4.71701 2.36675 3.83377 3.10026 3.10026C3.83377 2.36675 4.71701 2 5.75 2H18.25Z" fill="white"/>
</svg>
