<svg width="16" height="16" viewBox="0 0 16 16" fill="none" xmlns="http://www.w3.org/2000/svg">
<path fill-rule="evenodd" clip-rule="evenodd" d="M2.26324 8.00016C2.26324 4.83202 4.83153 2.26373 7.99968 2.26373C11.1678 2.26373 13.7361 4.83202 13.7361 8.00016C13.7361 11.1683 11.1678 13.7366 7.99968 13.7366C4.83153 13.7366 2.26324 11.1683 2.26324 8.00016ZM7.99968 1.3335C4.31778 1.3335 1.33301 4.31826 1.33301 8.00016C1.33301 11.6821 4.31778 14.6668 7.99968 14.6668C11.6816 14.6668 14.6663 11.6821 14.6663 8.00016C14.6663 4.31826 11.6816 1.3335 7.99968 1.3335ZM8.46479 4.27923C8.46479 4.02236 8.25655 3.81412 7.99968 3.81412C7.7428 3.81412 7.53456 4.02236 7.53456 4.27923V8.00016C7.53456 8.17634 7.63409 8.33739 7.79167 8.41618L10.2723 9.65649C10.502 9.77137 10.7814 9.67824 10.8963 9.44848C11.0112 9.21872 10.9181 8.93934 10.6883 8.82446L8.46479 7.71271V4.27923Z" fill="#6F7374"/>
</svg>
