<svg width="20" height="20" viewBox="0 0 20 20" fill="none" xmlns="http://www.w3.org/2000/svg">
<path fill-rule="evenodd" clip-rule="evenodd" d="M4.11299 12.9128C4.82563 12.2002 5.79218 11.7998 6.8 11.7998H13.2C14.2078 11.7998 15.1744 12.2002 15.887 12.9128C16.5996 13.6254 17 14.592 17 15.5998V17.1998C17 17.5312 16.7314 17.7998 16.4 17.7998C16.0686 17.7998 15.8 17.5312 15.8 17.1998V15.5998C15.8 14.9102 15.5261 14.2489 15.0385 13.7613C14.5509 13.2737 13.8896 12.9998 13.2 12.9998H6.8C6.11044 12.9998 5.44912 13.2737 4.96152 13.7613C4.47393 14.2489 4.2 14.9102 4.2 15.5998V17.1998C4.2 17.5312 3.93137 17.7998 3.6 17.7998C3.26863 17.7998 3 17.5312 3 17.1998V15.5998C3 14.592 3.40036 13.6254 4.11299 12.9128Z" fill="white"/>
<path fill-rule="evenodd" clip-rule="evenodd" d="M10.0002 3.39971C8.56425 3.39971 7.4002 4.56377 7.4002 5.99971C7.4002 7.43565 8.56425 8.59971 10.0002 8.59971C11.4361 8.59971 12.6002 7.43565 12.6002 5.99971C12.6002 4.56377 11.4361 3.39971 10.0002 3.39971ZM6.2002 5.99971C6.2002 3.90103 7.90151 2.19971 10.0002 2.19971C12.0989 2.19971 13.8002 3.90103 13.8002 5.99971C13.8002 8.09839 12.0989 9.79971 10.0002 9.79971C7.90151 9.79971 6.2002 8.09839 6.2002 5.99971Z" fill="white"/>
</svg>
