<svg width="52" height="24" viewBox="0 0 52 24" fill="none" xmlns="http://www.w3.org/2000/svg">
<path d="M2 11.25C1.58579 11.25 1.25 11.5858 1.25 12C1.25 12.4142 1.58579 12.75 2 12.75V11.25ZM50.5303 12.5303C50.8232 12.2374 50.8232 11.7626 50.5303 11.4697L45.7574 6.6967C45.4645 6.40381 44.9896 6.40381 44.6967 6.6967C44.4038 6.98959 44.4038 7.46447 44.6967 7.75736L48.9393 12L44.6967 16.2426C44.4038 16.5355 44.4038 17.0104 44.6967 17.3033C44.9896 17.5962 45.4645 17.5962 45.7574 17.3033L50.5303 12.5303ZM2 12.75H50V11.25H2V12.75Z" fill="currentColor"/>
</svg>
