<svg xmlns="http://www.w3.org/2000/svg" width="35" height="16" viewBox="0 0 35 16" fill="none" style="&#10;">
  <path d="M1.33301 7.25C0.918794 7.25 0.583008 7.58579 0.583008 8C0.583008 8.41421 0.918794 8.75 1.33301 8.75V7.25ZM33.8633 8.53033C34.1562 8.23744 34.1562 7.76256 33.8633 7.46967L29.0904 2.6967C28.7975 2.40381 28.3226 2.40381 28.0297 2.6967C27.7368 2.98959 27.7368 3.46447 28.0297 3.75736L32.2723 8L28.0297 12.2426C27.7368 12.5355 27.7368 13.0104 28.0297 13.3033C28.3226 13.5962 28.7975 13.5962 29.0904 13.3033L33.8633 8.53033ZM1.33301 8.75H33.333V7.25H1.33301V8.75Z" fill="currentColor"/>
</svg>